<svg width="35" height="35" viewBox="0 0 35 35" fill="none" xmlns="http://www.w3.org/2000/svg">
<g clip-path="url(#clip0_601_4732)">
<path d="M28.6202 9.33376H26.2496C23.497 9.32719 20.9065 8.03192 19.2497 5.83381L17.8497 3.96718C14.5637 -0.414237 8.34802 -1.30213 3.9666 1.98388C1.46954 3.85664 0 6.79579 0 9.91708V35H3.42236L4.58901 26.8335H30.4104L31.5771 35H34.9994V15.713C34.9953 12.1915 32.1416 9.33791 28.6202 9.33376ZM2.41088 33.8333H1.16665V26.8335H3.41069L2.41088 33.8333ZM33.8328 33.8333H32.5885L31.5887 26.8335H33.8328V33.8333ZM33.8328 25.6668H1.16665V22.1669H2.91662V24.5002H4.08327V22.1669H5.24991V24.5002H6.41656V22.1669H7.58321V24.5002H8.74986V22.1669H9.9165V24.5002H11.0831V22.1669H12.2498V24.5002H13.4164V22.1669H14.5831V24.5002H15.7497V22.1669H16.9164V24.5002H18.083V22.1669H19.2497V24.5002H20.4163V22.1669H21.583V24.5002H22.7496V22.1669H23.9163V24.5002H25.0829V22.1669H26.2496V24.5002H27.4162V22.1669H28.5829V24.5002H29.7495V22.1669H30.9162V24.5002H32.0828V22.1669H33.8328V25.6668ZM33.8328 21.0002H1.16665V19.8336H33.8328V21.0002ZM33.8328 18.6669H1.16665V9.91708C1.16665 5.08468 5.0841 1.16723 9.9165 1.16723C12.6706 1.16723 15.2639 2.46388 16.9164 4.66717L18.3164 6.5338C20.194 9.02503 23.13 10.493 26.2496 10.5004H28.6202C31.4976 10.5039 33.8293 12.8356 33.8328 15.713V18.6669Z" fill="#00B76C"/>
<path d="M8.02148 2.57315L8.31198 3.70246C8.83631 3.5683 9.37544 3.50048 9.91669 3.50063V2.33398C9.27745 2.33377 8.64068 2.41412 8.02148 2.57315Z" fill="#00B76C"/>
<path d="M6.12558 3.34766C3.7831 4.70651 2.33916 7.2078 2.33398 9.91587V11.0825H3.50063V9.91587C3.50537 7.62429 4.72699 5.5077 6.70891 4.35739L6.12558 3.34766Z" fill="#00B76C"/>
</g>
<defs>
<clipPath id="clip0_601_4732">
<rect width="35" height="35" fill="white"/>
</clipPath>
</defs>
</svg>
