<svg width="30" height="26" viewBox="0 0 30 26" fill="none" xmlns="http://www.w3.org/2000/svg">
<path d="M26.94 7.68625C26.94 7.415 26.93 7.15125 26.9175 6.89125C28.1375 6.025 29.1637 4.94375 30 3.69875V3.6975C28.8838 4.18625 27.6963 4.51125 26.4563 4.66875C27.7313 3.9075 28.705 2.71125 29.1625 1.27C27.9737 1.97875 26.6612 2.47875 25.2625 2.75875C24.1337 1.55625 22.525 0.8125 20.77 0.8125C17.365 0.8125 14.6238 3.57625 14.6238 6.96375C14.6238 7.45125 14.665 7.92 14.7662 8.36625C9.65375 8.11625 5.12875 5.66625 2.08875 1.9325C1.55875 2.85375 1.24625 3.9075 1.24625 5.04125C1.24625 7.17125 2.3425 9.05875 3.97875 10.1525C2.99 10.1337 2.02125 9.84625 1.2 9.395V9.4625C1.2 12.4513 3.33125 14.9338 6.1275 15.5063C5.1875 15.7638 4.03 15.7537 3.35125 15.6038C4.1475 18.0387 6.41 19.83 9.0975 19.8888C7.005 21.525 4.3475 22.5112 1.47125 22.5112C0.9675 22.5112 0.48375 22.4888 0 22.4275C2.725 24.1838 5.9525 25.1875 9.435 25.1875C20.7525 25.1875 26.94 15.8125 26.94 7.68625Z" fill="currentColor"/>
</svg>
