<svg width="22" height="22" viewBox="0 0 22 22" fill="none" xmlns="http://www.w3.org/2000/svg">
<path fill-rule="evenodd" clip-rule="evenodd" d="M8.77787 1.64961C4.84131 1.64961 1.6501 4.84082 1.6501 8.77739C1.6501 12.7139 4.84131 15.9052 8.77787 15.9052C12.7144 15.9052 15.9057 12.7139 15.9057 8.77739C15.9057 4.84082 12.7144 1.64961 8.77787 1.64961ZM0.350098 8.77739C0.350098 4.12285 4.12334 0.349609 8.77787 0.349609C13.4324 0.349609 17.2057 4.12285 17.2057 8.77739C17.2057 13.4319 13.4324 17.2052 8.77787 17.2052C4.12334 17.2052 0.350098 13.4319 0.350098 8.77739Z" fill="currentColor"/>
<path fill-rule="evenodd" clip-rule="evenodd" d="M13.8738 13.8733C14.1277 13.6195 14.5392 13.6195 14.793 13.8733L21.4597 20.54C21.7136 20.7938 21.7136 21.2054 21.4597 21.4592C21.2059 21.7131 20.7943 21.7131 20.5405 21.4592L13.8738 14.7926C13.62 14.5387 13.62 14.1272 13.8738 13.8733Z" fill="currentColor"/>
</svg>
