<svg width="80" height="15" viewBox="0 0 80 15" fill="none" xmlns="http://www.w3.org/2000/svg">
<path d="M7.40741 0L9.07047 5.11839H14.4523L10.0983 8.28173L11.7614 13.4001L7.40741 10.2368L3.05344 13.4001L4.71651 8.28173L0.362545 5.11839H5.74434L7.40741 0Z" fill="#F1CB00"/>
<path d="M23.7038 0L25.3669 5.11839H30.7487L26.3947 8.28173L28.0578 13.4001L23.7038 10.2368L19.3498 13.4001L21.0129 8.28173L16.6589 5.11839H22.0407L23.7038 0Z" fill="#E3E3E3"/>
<path d="M40.0002 0L41.6632 5.11839H47.045L42.6911 8.28173L44.3541 13.4001L40.0002 10.2368L35.6462 13.4001L37.3093 8.28173L32.9553 5.11839H38.3371L40.0002 0Z" fill="#E3E3E3"/>
<path d="M56.2961 0L57.9591 5.11839H63.3409L58.987 8.28173L60.65 13.4001L56.2961 10.2368L51.9421 13.4001L53.6052 8.28173L49.2512 5.11839H54.633L56.2961 0Z" fill="#E3E3E3"/>
<path d="M72.5925 0L74.2555 5.11839H79.6373L75.2834 8.28173L76.9464 13.4001L72.5925 10.2368L68.2385 13.4001L69.9016 8.28173L65.5476 5.11839H70.9294L72.5925 0Z" fill="#E3E3E3"/>
</svg>
