<svg width="11" height="20" viewBox="0 0 11 20" fill="none" xmlns="http://www.w3.org/2000/svg">
<path d="M0.750461 1.49993C0.749815 1.83094 0.865096 2.15172 1.07629 2.40659L7.42296 9.99993L1.30296 17.6074C1.18528 17.7523 1.09741 17.9191 1.04438 18.0981C0.991349 18.277 0.974217 18.4647 0.993963 18.6504C1.01371 18.836 1.06995 19.0159 1.15944 19.1797C1.24894 19.3435 1.36993 19.488 1.51546 19.6049C1.66037 19.7226 1.8271 19.8105 2.00608 19.8635C2.18507 19.9165 2.37276 19.9337 2.55838 19.9139C2.74401 19.8942 2.9239 19.8379 3.08772 19.7484C3.25154 19.6589 3.39605 19.538 3.51296 19.3924L10.3555 10.8924C10.5638 10.6389 10.6777 10.321 10.6777 9.99285C10.6777 9.66471 10.5638 9.34675 10.3555 9.09326L3.27213 0.593263C3.1532 0.449814 3.00714 0.331236 2.84232 0.24432C2.67749 0.157404 2.49714 0.103859 2.31159 0.0867497C2.12604 0.0696426 1.93893 0.0893112 1.761 0.144624C1.58306 0.199936 1.41778 0.289808 1.27463 0.409095C1.11212 0.540922 0.980828 0.707113 0.890198 0.895723C0.799567 1.08433 0.751845 1.29068 0.750461 1.49993Z" fill="currentColor"/>
</svg>
