<svg width="30" height="22" viewBox="0 0 30 22" fill="none" xmlns="http://www.w3.org/2000/svg">
<path d="M0.652288 18.3429C1.26479 20.5154 3.13854 20.9129 3.26354 20.9891C6.34729 21.8291 23.6323 21.8316 26.7623 20.9891C28.906 20.3691 29.2998 18.4679 29.3735 18.3429C30.1898 14.0004 30.2435 8.33912 29.336 3.41162L29.3735 3.65662C28.761 1.48412 26.8873 1.08662 26.7623 1.01037C23.7198 0.184117 6.38979 0.152867 3.26354 1.01037C1.11979 1.63162 0.726038 3.53162 0.652288 3.65662C-0.221462 8.22037 -0.265212 13.4566 0.652288 18.3429V18.3429ZM12.0098 15.5641V6.44787L19.8423 11.0129L12.0098 15.5641Z" fill="currentColor"/>
</svg>
