<svg width="20" height="20" viewBox="0 0 20 20" fill="none" xmlns="http://www.w3.org/2000/svg">
<path fill-rule="evenodd" clip-rule="evenodd" d="M17.5008 19.75H17.3733C2.63577 18.9025 0.54327 6.46751 0.25077 2.67251C0.202631 2.04649 0.418257 1.42883 0.845543 0.968789C1.27283 0.508744 1.87291 0.248162 2.50077 0.25001H6.45327C7.06798 0.249415 7.62083 0.623928 7.84827 1.19501L8.98827 4.00001C9.21264 4.55737 9.08279 5.19483 8.65827 5.62001L7.06077 7.23251C7.56987 10.1383 9.84135 12.4158 12.7458 12.9325L14.3733 11.32C14.8049 10.9001 15.4457 10.7791 16.0008 11.0125L18.8283 12.145C19.3905 12.3795 19.7551 12.9308 19.7508 13.54V17.5C19.7508 18.7427 18.7434 19.75 17.5008 19.75ZM2.50045 1.75C2.2907 1.74933 2.09024 1.83653 1.94773 1.99044C1.80522 2.14436 1.73367 2.35092 1.75045 2.56C2.09545 7 4.30795 17.5 17.4555 18.25C17.662 18.2624 17.8646 18.1889 18.0151 18.0469C18.1657 17.9049 18.2508 17.707 18.2505 17.5V13.54L15.423 12.4075L13.2705 14.545L12.9105 14.5C6.38545 13.6825 5.50045 7.1575 5.50045 7.09L5.45545 6.73L7.58545 4.5775L6.46045 1.75H2.50045Z" fill="#333333"/>
<path fill-rule="evenodd" clip-rule="evenodd" d="M17.5008 19.75H17.3733C2.63577 18.9025 0.54327 6.46751 0.25077 2.67251C0.202631 2.04649 0.418257 1.42883 0.845543 0.968789C1.27283 0.508744 1.87291 0.248162 2.50077 0.25001H6.45327C7.06798 0.249415 7.62083 0.623928 7.84827 1.19501L8.98827 4.00001C9.21264 4.55737 9.08279 5.19483 8.65827 5.62001L7.06077 7.23251C7.56987 10.1383 9.84135 12.4158 12.7458 12.9325L14.3733 11.32C14.8049 10.9001 15.4457 10.7791 16.0008 11.0125L18.8283 12.145C19.3905 12.3795 19.7551 12.9308 19.7508 13.54V17.5C19.7508 18.7427 18.7434 19.75 17.5008 19.75ZM2.50045 1.75C2.2907 1.74933 2.09024 1.83653 1.94773 1.99044C1.80522 2.14436 1.73367 2.35092 1.75045 2.56C2.09545 7 4.30795 17.5 17.4555 18.25C17.662 18.2624 17.8646 18.1889 18.0151 18.0469C18.1657 17.9049 18.2508 17.707 18.2505 17.5V13.54L15.423 12.4075L13.2705 14.545L12.9105 14.5C6.38545 13.6825 5.50045 7.1575 5.50045 7.09L5.45545 6.73L7.58545 4.5775L6.46045 1.75H2.50045Z" fill="black"/>
</svg>
