<svg width="200" height="40" viewBox="0 0 200 40" fill="none" xmlns="http://www.w3.org/2000/svg">
<path d="M72.0978 10.5088C71.602 10.3416 71.0629 10.3552 70.5762 10.5472C70.0841 10.7378 69.658 11.067 69.3495 11.4948L61.019 23.8264L52.6757 11.482C52.3707 11.0592 51.9489 10.7343 51.4618 10.5472C50.9771 10.3611 50.4432 10.3461 49.9488 10.5045C49.5064 10.6321 49.1215 10.908 48.8588 11.2856C48.5686 11.6971 48.4187 12.191 48.4314 12.6942V29.6401H50.4446V12.6985C50.4446 12.6217 50.4446 12.4467 50.5557 12.4125H50.6113C50.6911 12.4161 50.7689 12.4394 50.8375 12.4804C50.9062 12.5213 50.9635 12.5787 51.0045 12.6473L61.0105 27.412L71.0165 12.643C71.056 12.5754 71.112 12.5188 71.1792 12.4785C71.2464 12.4382 71.3228 12.4155 71.4011 12.4125H71.4781C71.5678 12.4424 71.5764 12.6174 71.5764 12.6942V29.6401H73.5896V12.6985C73.606 12.1922 73.4559 11.6944 73.1621 11.2814C72.9004 10.9157 72.5269 10.6446 72.0978 10.5088Z" fill="#4A9B7A"/>
<path d="M77.7144 13.9877V26.0377C77.7121 26.9905 78.0884 27.9054 78.7606 28.5816C79.4329 29.2577 80.3463 29.64 81.3004 29.6445H95.3157V27.6341H81.3175C80.8943 27.6329 80.4888 27.4643 80.19 27.165C79.8911 26.8657 79.7233 26.4603 79.7233 26.0377V21.0307H94.3839V19.0203H79.7233V13.9877C79.7216 13.777 79.7615 13.5679 79.8407 13.3726C79.9199 13.1772 80.0368 12.9993 80.1849 12.8491C80.3329 12.6989 80.5092 12.5792 80.7035 12.497C80.8978 12.4148 81.1065 12.3716 81.3175 12.37H95.3328V10.3809H81.3175C80.8436 10.3809 80.3744 10.4742 79.9367 10.6556C79.499 10.8369 79.1014 11.1028 78.7667 11.4378C78.432 11.7728 78.1668 12.1705 77.9862 12.6081C77.8056 13.0456 77.7132 13.5145 77.7144 13.9877Z" fill="#4A9B7A"/>
<path d="M113.759 10.3809H98.5039V29.6403H113.759C115.156 29.6391 116.496 29.0843 117.484 28.0975C118.472 27.1107 119.028 25.7727 119.029 24.3772V15.6695C119.031 14.2706 118.477 12.928 117.489 11.9364C116.501 10.9448 115.159 10.3854 113.759 10.3809ZM113.759 27.6341H100.509V12.3913H113.759C114.628 12.3936 115.461 12.7398 116.076 13.3542C116.69 13.9686 117.036 14.8012 117.037 15.6695V24.3815C117.034 25.2468 116.686 26.0754 116.072 26.6852C115.457 27.2951 114.625 27.6363 113.759 27.6341Z" fill="#4A9B7A"/>
<path d="M122.739 13.9877V26.0377C122.737 26.9905 123.113 27.9054 123.785 28.5816C124.457 29.2577 125.371 29.64 126.325 29.6445H140.34V27.6341H126.325C125.902 27.6329 125.496 27.4643 125.197 27.165C124.898 26.8657 124.731 26.4603 124.731 26.0377V21.0307H139.4V19.0203H124.731V13.9877C124.729 13.777 124.769 13.5679 124.848 13.3726C124.927 13.1772 125.044 12.9993 125.192 12.8491C125.34 12.6989 125.516 12.5792 125.711 12.497C125.905 12.4148 126.114 12.3716 126.325 12.37H140.34V10.3809H126.325C125.371 10.3854 124.457 10.7677 123.785 11.4438C123.113 12.12 122.737 13.0349 122.739 13.9877Z" fill="#4A9B7A"/>
<path d="M156.736 20.0958L147.333 17.9615C146.585 17.7951 144.307 17.2999 144.307 16.2029V14.4102C144.286 14.135 144.324 13.8585 144.417 13.5989C144.511 13.3392 144.658 13.1022 144.85 12.9034C145.005 12.7377 145.191 12.6044 145.398 12.5113C145.605 12.4182 145.828 12.3672 146.055 12.3613H159.651V10.3594H146.055C145.556 10.3693 145.065 10.4786 144.609 10.6809C144.153 10.8832 143.742 11.1744 143.401 11.5375C143.028 11.9187 142.737 12.3721 142.547 12.8699C142.357 13.3677 142.27 13.8992 142.294 14.4315V16.2115C142.29 16.8709 142.517 17.5111 142.935 18.0213C143.303 18.4636 143.764 18.8193 144.286 19.0628C145.115 19.4605 145.993 19.7475 146.897 19.9165L155.873 21.944V21.991L156.33 22.0721C158.331 22.4349 158.399 23.5618 158.399 23.6002V25.7558C158.399 26.8699 157.57 27.6211 156.335 27.6211H142.443V29.6401H156.36C157.427 29.672 158.463 29.2806 159.241 28.5517C159.625 28.1963 159.929 27.7647 160.135 27.2846C160.341 26.8045 160.444 26.2866 160.438 25.7643V23.6301C160.416 23.0584 160.242 22.5028 159.934 22.0209C159.485 21.3465 158.583 20.4543 156.736 20.0958Z" fill="#4A9B7A"/>
<path d="M162.22 12.3913H170.401V29.6445H172.414V12.3913H180.617V10.3809H162.22V12.3913Z" fill="#4A9B7A"/>
<path d="M185.981 12.37H200V10.3809H185.981C185.026 10.3854 184.113 10.7677 183.441 11.4438C182.769 12.12 182.392 13.0349 182.395 13.9877V26.0377C182.393 26.9898 182.77 27.9036 183.442 28.5788C184.114 29.2541 185.027 29.6357 185.981 29.6403H200V27.6341H185.981C185.557 27.6329 185.152 27.4643 184.853 27.165C184.554 26.8657 184.386 26.4603 184.386 26.0377V21.0307H199.056V19.0203H184.386V13.9877C184.385 13.777 184.425 13.5679 184.504 13.3726C184.583 13.1772 184.7 12.9993 184.848 12.8491C184.996 12.6989 185.172 12.5792 185.367 12.497C185.561 12.4148 185.77 12.3716 185.981 12.37Z" fill="#4A9B7A"/>
<path d="M15.0325 1.91208e-05C13.901 0.00673882 12.8178 0.45861 12.0176 1.25765C11.2175 2.0567 10.765 3.1385 10.7583 4.2685V9.9029L19.341 18.474V4.28558C19.3404 3.72151 19.2285 3.16309 19.0115 2.64228C18.7946 2.12147 18.477 1.6485 18.0768 1.25044C17.6766 0.852373 17.2017 0.537036 16.6793 0.322473C16.157 0.10791 15.5974 -0.00166494 15.0325 1.91208e-05Z" fill="#4A9B7A"/>
<path d="M8.51509e-06 24.9882C0.00562582 26.1185 0.457749 27.201 1.25811 28.0003C2.05847 28.7995 3.14238 29.2511 4.27424 29.2567H9.91623L18.4989 20.6855H4.29134C3.72667 20.6867 3.16775 20.7988 2.6465 21.0157C2.12524 21.2325 1.65185 21.5498 1.25337 21.9493C0.85488 22.3488 0.539096 22.8228 0.324044 23.3443C0.108993 23.8657 -0.0011152 24.4243 8.51509e-06 24.9882Z" fill="#4A9B7A"/>
<path d="M25.0213 40C26.1532 39.9944 27.2371 39.5429 28.0374 38.7436C28.8378 37.9443 29.2899 36.8619 29.2955 35.7315V30.0971L20.73 21.5303V35.7187C20.7334 36.8539 21.1867 37.9415 21.9909 38.7438C22.7951 39.5461 23.8846 39.9978 25.0213 40Z" fill="#4A9B7A"/>
<path d="M35.7627 10.7266H30.1378L21.5552 19.2977H35.7627C36.9009 19.2977 37.9924 18.8462 38.7972 18.0425C39.6019 17.2388 40.0541 16.1487 40.0541 15.0121C40.0541 13.8755 39.6019 12.7855 38.7972 11.9818C37.9924 11.1781 36.9009 10.7266 35.7627 10.7266Z" fill="#4A9B7A"/>
<path d="M25.0213 1.91208e-05C23.8898 0.00673882 22.8065 0.45861 22.0064 1.25765C21.2063 2.0567 20.7538 3.1385 20.7471 4.2685V18.4569L29.3297 9.88583V4.28558C29.3292 3.72151 29.2172 3.16309 29.0003 2.64228C28.7834 2.12147 28.4657 1.6485 28.0655 1.25044C27.6653 0.852373 27.1905 0.537036 26.6681 0.322473C26.1457 0.10791 25.5861 -0.00166494 25.0213 1.91208e-05Z" fill="#4A9B7A"/>
<path d="M4.29133 10.7266C3.1532 10.7266 2.06168 11.1781 1.2569 11.9818C0.452123 12.7855 0 13.8755 0 15.0121C0 16.1487 0.452123 17.2388 1.2569 18.0425C2.06168 18.8462 3.1532 19.2977 4.29133 19.2977H18.4989L9.91622 10.7266H4.29133Z" fill="#4A9B7A"/>
<path d="M15.0325 40C16.1644 39.9944 17.2483 39.5429 18.0487 38.7436C18.849 37.9443 19.3012 36.8619 19.3068 35.7315V21.5303L10.7412 30.0971V35.7144C10.7435 36.8504 11.1963 37.9391 12.0006 38.7423C12.8049 39.5455 13.8951 39.9978 15.0325 40Z" fill="#4A9B7A"/>
<path d="M35.7627 20.7021H21.5552L30.1378 29.2733H35.7627C36.9009 29.2733 37.9924 28.8218 38.7972 28.0181C39.6019 27.2144 40.0541 26.1243 40.0541 24.9877C40.0541 23.8511 39.6019 22.7611 38.7972 21.9574C37.9924 21.1537 36.9009 20.7021 35.7627 20.7021Z" fill="#4A9B7A"/>
</svg>
